<svg xmlns="http://www.w3.org/2000/svg" xml:space="preserve" width="2048" height="2048" style="shape-rendering:geometricPrecision;text-rendering:geometricPrecision;image-rendering:optimizeQuality;fill-rule:evenodd;clip-rule:evenodd"><defs><clipPath id="id0"><path d="M1024-.001c565.541 0 1024 458.46 1024 1024s-458.461 1024-1024 1024c-565.541 0-1024-458.461-1024-1024 0-565.541 458.461-1024 1024-1024z"/></clipPath><style>.fil1{fill:#00796b}.fil5{fill:#c57040}.fil14,.fil8{fill:#424242;fill-rule:nonzero}.fil8{fill:#616161}</style></defs><g id="Layer_x0020_1"><path d="M1024-.001c565.541 0 1024 458.46 1024 1024s-458.461 1024-1024 1024c-565.541 0-1024-458.461-1024-1024 0-565.541 458.461-1024 1024-1024z" style="fill:#26a69a"/><g style="clip-path:url(#id0)"><g id="_517132168"><path id="_4899618001" class="fil1" d="M1372.18 488.783 2508.06 1624.67v88.51L1372.18 577.3z"/><path id="_489961512" class="fil1" d="m1416.25 1561.63 1135.88 1135.88-.12 2.29-.34 2.22-.55 2.14-.75 2.06-.94 1.95-1.12 1.85-1.29 1.72-1.45 1.59-1.58 1.44-1.73 1.29-1.84 1.12-1.96.94-2.05.76-2.15.55-2.22.34-2.28.11L1393.87 1584l2.29-.12 2.22-.33 2.15-.56 2.05-.75 1.96-.94 1.84-1.12 1.72-1.29 1.59-1.44 1.45-1.59 1.28-1.72 1.13-1.85.94-1.95.75-2.06.55-2.14.34-2.22z"/><path id="_489962376" class="fil1" d="m1393.87 1584 1135.89 1135.88H1888.5L752.617 1584z"/><path id="_489962472" class="fil1" d="M752.617 1584 1888.5 2719.88h-12.41L740.206 1584z"/><path id="_489962640" class="fil1" d="M737.356 1583.95 1873.24 2719.83l-.78-.01-.79-.05-.78-.07-.79-.1-.78-.12-.79-.16-.78-.18-.79-.22L731.079 1583.04l.786.21.785.19.787.16.786.12.786.1.784.07.783.04z"/><path id="_489963240" class="fil1" d="M740.206 1584 1876.09 2719.88h-2.85L737.356 1584z"/><path id="_489963576" class="fil1" d="M731.079 1583.04 1866.96 2718.92l-2.77-.84-2.73-.86-2.69-.89-2.66-.92-2.62-.95-2.58-.97-2.54-1-2.51-1.04-2.47-1.05-2.44-1.09-2.39-1.12-2.36-1.14-2.32-1.17-2.28-1.2-2.25-1.23-2.21-1.26-2.17-1.29-2.13-1.31-2.09-1.35-2.06-1.37-2.01-1.4-1.98-1.43-1.94-1.47-1.91-1.49-1.86-1.52L673.11 1553.68l1.863 1.52 1.902 1.49 1.94 1.46 1.979 1.43 2.017 1.41 2.056 1.37 2.093 1.35 2.132 1.31 2.17 1.29 2.207 1.25 2.246 1.23 2.283 1.21 2.321 1.17 2.357 1.14 2.397 1.12 2.433 1.08 2.471 1.06 2.507 1.03 2.545 1.01 2.583.97 2.62.95 2.656.92 2.693.89 2.731.86z"/><path id="_489963384" class="fil1" d="M1366.51 473.553 2502.4 1609.44l.85 1.04.79 1.1.73 1.14.66 1.19.6 1.22.52 1.27.45 1.3.38 1.34.29 1.36.22 1.4.13 1.42.04 1.45L1372.18 488.783l-.04-1.444-.14-1.421-.21-1.396-.29-1.367-.38-1.336-.45-1.302-.52-1.267-.6-1.227-.66-1.186-.73-1.142-.79-1.096z"/><path id="_489963408" class="fil1" d="M1416.25 599.665 2552.13 1735.55v961.96L1416.25 1561.63z"/><path id="_489963432" class="fil1" d="M1405.92 577.293 2541.8 1713.17l3.98 6.77L1409.9 584.057z"/><path id="_489963720" class="fil1" d="M1410.62 584.829 2546.5 1720.71l.68.81.64.84.61.86.56.9.52.93.48.95.44.98.38 1 .34 1.02.3 1.05.24 1.06.19 1.09.13 1.1.09 1.12.03 1.13L1416.25 599.665l-.03-1.131-.09-1.118-.13-1.101-.19-1.083-.25-1.065-.29-1.045-.34-1.025-.39-1.002-.43-.977-.48-.953-.52-.925-.56-.899-.61-.868-.64-.837z"/><path id="_517132720" class="fil1" d="M1416.25 599.665v961.964c0 12.355-10.017 22.371-22.371 22.371H737.36v-.052a22.339 22.339 0 0 1-6.277-.91c-29.711-8.776-53.159-22.228-69.93-40.832-17.05-18.916-26.793-42.482-28.782-71.13a22.6 22.6 0 0 1-.192-2.942V555.106c-2.2-17.604 4.382-33.573 16.598-46.244 21.993-22.81 70.948-41.47 158.008-43.21 179.73-3.586 362.302-.214 542.347-.214 5.034 0 9.68 1.663 13.418 4.47 5.837 4.236 9.633 11.113 9.633 18.876V577.3l33.739-.007 3.98 6.764a22.295 22.295 0 0 1 6.347 15.609z"/></g></g><path d="M1024-.001c565.541 0 1024 458.46 1024 1024s-458.461 1024-1024 1024c-565.541 0-1024-458.461-1024-1024 0-565.541 458.461-1024 1024-1024z" style="fill:none"/><path d="m740.206 577.426 665.712-.133 3.98 6.764a22.295 22.295 0 0 1 6.348 15.608v961.964c0 12.356-10.017 22.371-22.372 22.371H740.205V577.43z" style="fill:#ffaf68"/><path d="m734.329 577.432 5.875-.001v1006.34c-2.97.382-6.066.17-9.124-.728-29.712-8.777-53.16-22.228-69.93-40.833-17.051-18.915-26.793-42.482-28.782-71.13a22.6 22.6 0 0 1-.193-2.942V555.11c-2.2-17.604 4.382-33.572 16.598-46.243 21.994-22.81 70.948-41.47 158.008-43.211 179.731-3.586 362.302-.214 542.347-.214 10.266 0 18.918 6.918 21.55 16.344 4.91 11.263-4.12 24.07-18.597 27.276-9.994.62-18.455 1.124-28.33 1.127l-524.176.217c-12.57.695-55.729-.467-87.032 7.52-68.616 17.507-29.73 59.697 21.786 59.51z" style="fill:#e08045"/><path class="fil5" d="M737.356 564.471v1019.53h15.261V565.081a9.391 9.391 0 0 1-1.752.263 57.321 57.321 0 0 1-13.51-.869z"/><path d="m1339.95 510.45-21.508.01-525.749.21c-75.732.03-112.109 12.8-116.665 31.392-3.537 14.437 10.29 35.788 51.418 35.639a8.747 8.747 0 0 1 1.478-.138h613.568l-2.542-67.113z" style="fill:#fff8e1"/><path d="M1372.18 488.783c0-12.87-10.435-23.305-23.305-23.305-12.871 0-23.305 10.435-23.305 23.305V577.558h46.61v-88.775z" style="fill:#e08045;fill-rule:nonzero"/><path class="fil5" d="M937.43 809.699h264.005v28.12H937.43zM838.817 887.026h461.23v28.12h-461.23z"/><path class="fil8" d="M1124.33 1087.2a26.67 26.67 0 0 1-18.916 7.837 26.67 26.67 0 0 1-18.917-7.837 26.67 26.67 0 0 1-7.837-18.916 26.67 26.67 0 0 1 7.837-18.917 26.67 26.67 0 0 1 18.916-7.835 26.669 26.669 0 0 1 18.917 7.835 26.67 26.67 0 0 1 7.835 18.916 26.669 26.669 0 0 1-7.835 18.917z"/><path d="M1105.42 1264.94H938.43a8.919 8.919 0 0 1-8.919-8.917c0-48.576 19.69-92.553 51.524-124.386s75.81-51.524 124.386-51.524c48.574 0 92.551 19.69 124.386 51.524 31.833 31.833 51.522 75.81 51.522 124.386a8.918 8.918 0 0 1-8.917 8.917h-166.99z" style="fill:#fafafa;fill-rule:nonzero"/><path d="m1105.42 1080.11.254.001c48.474.069 92.353 19.745 124.132 51.522 31.833 31.833 51.522 75.81 51.522 124.386a8.918 8.918 0 0 1-8.917 8.918H1105.42V1080.11z" style="fill:#99d19c;fill-rule:nonzero"/><path d="M1105.42 1264.94H938.43a8.919 8.919 0 0 1-8.919-8.917c0-48.576 19.69-92.553 51.524-124.386s75.81-51.524 124.386-51.524v184.826z" style="fill:#a5d6a7;fill-rule:nonzero"/><path class="fil8" d="M913.602 1247.39a8.917 8.917 0 0 0-8.917 8.917 8.917 8.917 0 0 0 8.917 8.918h383.632a8.917 8.917 0 0 0 8.917-8.918 8.917 8.917 0 0 0-8.917-8.917H913.602z"/><path d="M1169.32 1281.77c1.554.407 2.571.994 1.739-.05-.196-.248-.75-.145-1.739.05z" style="fill:#ffa022;fill-rule:nonzero"/><path style="fill:#666257;fill-rule:nonzero" d="m908.95 1251.15-.259-.22.258.22z"/><path class="fil14" d="m911.057 1265.22-.259-.21.257.21z"/><path d="M1165.93 1282.03c1.522.4 2.517.974 1.702-.05-.193-.24-.733-.14-1.702.05z" style="fill:#d37905;fill-rule:nonzero"/><path style="fill:#3a3a3a;fill-rule:nonzero" d="m911.051 1252.06-.253-.22.252.22z"/><path d="M1099.81 1271.07c19.759-1.779 40.767-3.67 58.685-5.75a8.81 8.81 0 0 1 1.477-.124c10.055 0 17.472 1.127 21.302 5.935 25.245 31.693-99.576 50.115-111.752 52.678-22.629 4.762-20.83 5.167-48.932 1.346-21.939-2.983-49.606-7.87-64.025-10.609-7.595-1.44-14.81-1.89-21.792-1.165-6.718.696-13.31 2.494-19.926 5.554-4.016 2.23-28.162 7.474-28.162 3.02l-1.86-55.693c19.724-4.642 27.373-26.11 50.478-36.902 17.593-5.311 37.918-7.878 46.624-7.62 9.604.285 19.263-1.495 27.235-2.965 8.307-1.53 15.075-2.776 20.483-1.55 4.589 1.041 8.231 3.87 10.483 7.6 1.617 2.679 2.507 5.86 2.485 9.176a18.206 18.206 0 0 1-2.839 9.646c-2.694 4.266-7.342 7.957-14.37 9.833-5.25 1.4-11.243 2.524-17.156 3.633-2.955.554-5.9 1.107-7.195 1.366-7.732 1.557-14.54 1.591-14.982 2.167.056.272.099.551.13.833.801.533 9.712 3.473 20.728 6.938 38.93 12.247 52.436 6.294 92.882 2.653z" style="fill:#b99576;fill-rule:nonzero"/><path d="M1185.62 1283.88c-2.452 7.845-14.536 14.21-30.184 19.294-4.575-6.405-5.566-12.317 5.971-17.742 9.111-4.285 17.657-4.344 24.213-1.552z" style="fill:#bababa;fill-rule:nonzero"/><path d="M900.575 1251.18c0-4.821-11.255-3.046-25.137-3.046-13.883 0-25.138-1.775-25.138 3.046v96.664c0 4.821 11.255 3.615 25.138 3.615 13.882 0 25.137 1.206 25.137-3.615v-96.664z" style="fill:#313f45;fill-rule:nonzero"/><path d="M1042.99 1228.53c2.642 8.464-1.4 17.291-13.233 20.986-11.835 3.693-15.434-2.713-18.076-11.177-2.64-8.465-3.326-15.78 8.509-19.474 11.835-3.694 20.16 1.201 22.8 9.665z" style="fill:#bababa"/><path class="fil14" d="m916.607 1265.69-.263-.23.262.23z"/></g></svg>